<?xml version="1.0" encoding="UTF-8" standalone="no"?>
<svg
     width="1088"
     height="648"
     viewBox="0 0 1088 648"
     fill="none"
     version="1.1"
     id="svg9"
     sodipodi:docname="social-card.svg"
     xml:space="preserve"
     inkscape:version="1.4.2 (ebf0e940d0, 2025-05-08)"
     inkscape:export-filename="social-card.png"
     inkscape:export-xdpi="95.151131"
     inkscape:export-ydpi="95.151131"
     xmlns:inkscape="http://www.inkscape.org/namespaces/inkscape"
     xmlns:sodipodi="http://sodipodi.sourceforge.net/DTD/sodipodi-0.dtd"
     xmlns="http://www.w3.org/2000/svg"
     xmlns:svg="http://www.w3.org/2000/svg"><sodipodi:namedview
         id="namedview9"
         pagecolor="#ffffff"
         bordercolor="#000000"
         borderopacity="0.25"
         inkscape:showpageshadow="2"
         inkscape:pageopacity="0.0"
         inkscape:pagecheckerboard="0"
         inkscape:deskcolor="#d1d1d1"
         showguides="true"
         inkscape:zoom="0.66371776"
         inkscape:cx="451.99936"
         inkscape:cy="308.1129"
         inkscape:window-width="1914"
         inkscape:window-height="1045"
         inkscape:window-x="0"
         inkscape:window-y="0"
         inkscape:window-maximized="1"
         inkscape:current-layer="svg9"
         showgrid="false" /><mask
         id="path-4-outside-1_57_23"
         maskUnits="userSpaceOnUse"
         x="434.5"
         y="410"
         width="219"
         height="62"
         fill="black"><rect
             fill="white"
             x="434.5"
             y="410"
             width="219"
             height="62"
             id="rect4" /><path
             d="M473.077 453.397C473.077 456.18 472.321 458.868 470.808 461.462C469.322 464.056 466.958 466.19 463.715 467.865C460.5 469.513 456.285 470.337 451.071 470.337C448.099 470.337 445.505 470.081 443.29 469.567C441.074 469.054 439.358 468.541 438.143 468.027C436.927 467.514 436.319 467.257 436.319 467.257V452.546H441.547L442.641 461.948C442.695 462.272 442.871 462.624 443.168 463.002C443.465 463.38 443.749 463.637 444.019 463.772C444.154 463.799 444.938 464.123 446.37 464.745C447.829 465.366 449.841 465.677 452.408 465.677C455.948 465.677 458.866 464.812 461.162 463.083C463.459 461.354 464.607 458.949 464.607 455.869C464.607 454.194 464.134 452.735 463.188 451.492C462.27 450.222 461.068 449.101 459.582 448.128C458.096 447.156 456.501 446.278 454.799 445.494C453.124 444.684 451.53 443.914 450.017 443.184C447.748 442.103 445.64 440.955 443.695 439.739C441.75 438.496 440.182 436.97 438.994 435.16C437.805 433.349 437.21 431.039 437.21 428.229C437.21 424.933 438.048 422.069 439.723 419.638C441.398 417.206 443.681 415.328 446.572 414.004C449.463 412.653 452.732 411.978 456.38 411.978C459.352 411.978 461.973 412.275 464.242 412.87C466.512 413.437 468.525 414.004 470.281 414.572L471.01 414.815V427.743H466.269L465.012 419.8C464.958 419.422 464.783 419.151 464.485 418.989C464.215 418.8 463.958 418.584 463.715 418.341C463.499 418.179 462.824 417.827 461.689 417.287C460.581 416.747 458.852 416.477 456.501 416.477C453.178 416.477 450.557 417.409 448.639 419.273C446.721 421.11 445.762 423.434 445.762 426.244C445.762 428.783 446.748 430.891 448.72 432.566C450.72 434.241 453.583 435.795 457.312 437.227C462.337 439.118 466.215 441.252 468.943 443.63C471.699 445.98 473.077 449.236 473.077 453.397ZM530.91 441.036C530.91 444.657 530.383 448.142 529.329 451.492C528.275 454.842 526.6 457.841 524.304 460.489C522.034 463.11 519.062 465.19 515.388 466.73C511.74 468.243 507.309 469 502.095 469H479.035V465.434L483.412 465.109C484.006 465.055 484.452 464.839 484.749 464.461C485.073 464.083 485.235 463.691 485.235 463.286V419.03C485.235 418.625 485.073 418.233 484.749 417.854C484.452 417.449 484.006 417.233 483.412 417.206L479.035 416.882V413.315H500.433C506.242 413.315 511.443 414.302 516.036 416.274C520.629 418.219 524.25 421.232 526.897 425.312C529.572 429.391 530.91 434.633 530.91 441.036ZM521.507 441.198C521.507 435.389 520.616 430.742 518.833 427.257C517.076 423.744 514.577 421.205 511.335 419.638C508.12 418.071 504.324 417.287 499.947 417.287H493.625V465.028L500.352 464.947C504.621 464.893 508.336 464.083 511.497 462.516C514.658 460.922 517.117 458.395 518.873 454.937C520.629 451.479 521.507 446.899 521.507 441.198ZM604.305 469H583.352V465.434L587.77 465.109C588.364 465.055 588.81 464.839 589.107 464.461C589.431 464.083 589.593 463.691 589.593 463.286V417.53L570.505 469H566.371L547.931 418.3V463.286C547.931 463.691 548.08 464.083 548.377 464.461C548.701 464.839 549.16 465.055 549.755 465.109L554.497 465.434V469H536.543V465.434L541.285 465.109C541.879 465.055 542.311 464.839 542.582 464.461C542.879 464.083 543.027 463.691 543.027 463.286V419.03C543.027 418.625 542.879 418.233 542.582 417.854C542.311 417.449 541.879 417.233 541.285 417.206L536.543 416.882V413.315H555.145V415.544L570.181 456.315L585.216 415.788V413.315H604.305V416.882L599.806 417.206C599.212 417.233 598.752 417.449 598.428 417.854C598.131 418.233 597.982 418.625 597.982 419.03V463.286C597.982 463.691 598.131 464.083 598.428 464.461C598.752 464.839 599.212 465.055 599.806 465.109L604.305 465.434V469ZM651.681 430.053C651.681 434.106 650.722 437.47 648.804 440.145C646.885 442.819 644.305 444.832 641.063 446.183C637.821 447.507 634.214 448.169 630.242 448.169H629.999C628.918 448.169 627.716 448.128 626.392 448.047C625.095 447.939 624.339 447.872 624.123 447.845V463.286C624.123 463.691 624.258 464.083 624.528 464.461C624.825 464.839 625.271 465.055 625.865 465.109L631.336 465.434V469H609.533V465.434L613.91 465.109C614.504 465.055 614.95 464.839 615.247 464.461C615.571 464.083 615.733 463.691 615.733 463.286V419.03C615.733 418.625 615.571 418.233 615.247 417.854C614.95 417.449 614.504 417.233 613.91 417.206L608.925 416.882V413.315H628.783C636.618 413.315 642.387 414.572 646.088 417.084C649.817 419.597 651.681 423.92 651.681 430.053ZM643.049 430.175C643.049 426.149 641.914 423.015 639.645 420.772C637.402 418.503 633.633 417.368 628.337 417.368C627.581 417.368 626.689 417.382 625.663 417.409C624.636 417.436 624.123 417.449 624.123 417.449V443.589C624.258 443.589 624.866 443.67 625.946 443.833C627.054 443.968 628 444.035 628.783 444.035H629.026C633.322 444.035 636.727 442.914 639.239 440.671C641.779 438.429 643.049 434.93 643.049 430.175Z"
             id="path4" /></mask><rect
         x="-1087.0667"
         y="-646.83801"
         width="1085.8417"
         height="645.70959"
         rx="14.173"
         transform="scale(-1)"
         fill="#9fb2e7"
         id="rect1"
         style="fill:#3e3a8a;stroke-width:1.00716"
         inkscape:label="Background" /><defs
         id="defs9"><linearGradient
             id="swatch14"
             inkscape:swatch="solid"><stop
                 style="stop-color:#000000;stop-opacity:1"
                 offset="0"
                 id="stop14" /></linearGradient></defs><g
         id="g1"
         inkscape:label="Name &amp; Desc"
         transform="translate(3.7739982e-4)"><text
             xml:space="preserve"
             style="font-size:29.3333px;font-family:'Noto Sans';-inkscape-font-specification:'Noto Sans';text-align:start;fill:#e0e7ff;stroke-width:2.57866"
             x="219.11952"
             y="571.93304"
             id="text19"
             transform="scale(1.0319093,0.96907741)"
             inkscape:label="Desc"><tspan
                 sodipodi:role="line"
                 id="tspan19"
                 x="219.11952"
                 y="571.93304"
                 style="-inkscape-font-specification:'Noto Sans';opacity:1">A powerful CLI to control your Linux Desktop </tspan></text><text
             xml:space="preserve"
             style="font-size:80px;font-family:'Abyssinica SIL';-inkscape-font-specification:'Abyssinica SIL';text-align:start;fill:#f8fafc;stroke-width:1.00157"
             x="417.04688"
             y="466.31094"
             id="text23"
             inkscape:label="Name"><tspan
                 sodipodi:role="line"
                 id="tspan23"
                 x="417.04688"
                 y="466.31094">MyCTL</tspan></text></g><g
         id="g19"
         transform="matrix(0.54809055,0,0,0.51811222,403.66045,87.053387)"
         inkscape:label="Project Icon"><path
             d="m 291.46926,10.952285 c 1.5048,0.87192 3.01542,1.733168 4.52586,2.595031 9.17221,5.252472 9.17221,5.252472 12.43176,7.33357 2.85796,1.823844 5.7941,3.500309 8.73556,5.182025 4.05956,2.330494 8.10382,4.681628 12.11801,7.09093 4.45262,2.66928 8.96644,5.221197 13.4906,7.76438 4.62194,2.599078 9.18123,5.238984 13.65727,8.086224 3.66964,2.291118 7.46754,4.369505 11.22845,6.502301 3.89568,2.213707 7.75253,4.477198 11.57371,6.819199 3.20338,1.960999 6.45167,3.834919 9.70861,5.703202 3.49855,2.01417 6.961,4.0908 10.42925,6.157527 2.18918,1.304426 4.3839,2.598974 6.58108,3.889607 2.19389,1.289976 4.37685,2.595212 6.54922,3.921806 2.29454,1.396461 4.61039,2.746855 6.94138,4.080255 5.29065,3.032328 10.52043,6.170796 15.74359,9.319846 4.52726,2.732907 4.52726,2.732907 9.11256,5.364622 15.2611,8.59996 26.42056,23.68376 31.45928,40.45841 l 0.38527,1.2658 c 1.98212,6.93298 2.50667,13.90236 2.48427,21.08738 l 0.007,2.51733 c 0.006,2.28155 0.005,4.56306 0.002,6.84464 -10e-4,2.47014 0.005,4.94028 0.008,7.41042 0.008,4.82998 0.008,9.65993 0.007,14.48992 -0.001,3.92879 -1e-5,7.8576 0.002,11.78639 l 0.001,1.69888 c 6.2e-4,1.13915 10e-4,2.27832 0.002,3.41749 0.007,10.66706 0.006,21.3341 0.002,32.00118 -0.004,9.74127 0.004,19.48252 0.0158,29.22379 0.0122,10.02184 0.0173,20.04364 0.015,30.06548 -10e-4,5.61867 3.2e-4,11.23733 0.0102,16.85601 0.007,4.78337 0.008,9.56669 6.4e-4,14.35006 -0.004,2.43647 -0.005,4.87284 0.004,7.30929 0.0555,19.15463 -2.30965,37.34903 -15.30056,52.33494 l -1.50004,1.79006 c -6.55929,7.65698 -14.19147,13.07816 -22.97128,17.85855 -2.48893,1.41403 -4.94706,2.86802 -7.39238,4.35757 -3.8028,2.31292 -7.6616,4.52232 -11.52242,6.73441 -3.25265,1.86914 -6.47534,3.77993 -9.67951,5.73259 -2.41248,1.46017 -4.85117,2.8736 -7.28913,4.28976 -3.5741,2.0828 -7.13572,4.18223 -10.66698,6.33826 -9.37656,5.7177 -18.87415,11.23215 -28.38812,16.71238 -8.84072,5.09252 -17.62513,10.27413 -26.37272,15.52811 -4.5763,2.74716 -9.16896,5.45566 -13.8212,8.0697 -6.39832,3.59983 -12.67751,7.41 -18.95001,11.22783 -4.41787,2.68722 -8.88141,5.28437 -13.37295,7.8436 l -1.75251,1.02749 c -15.37175,8.83025 -32.40322,11.87067 -49.68532,7.20729 -11.00347,-3.4035 -20.56327,-8.84767 -30.37989,-14.84416 -2.35196,-1.43287 -4.71815,-2.84066 -7.08692,-4.2449 l -1.29646,-0.77031 c -3.68168,-2.18527 -7.37729,-4.34597 -11.07432,-6.50461 -4.22136,-2.4656 -8.43675,-4.94148 -12.64958,-7.42193 l -1.87644,-1.10363 c -2.87259,-1.69229 -5.73704,-3.39579 -8.58466,-5.13065 -2.57705,-1.56694 -5.18308,-3.06848 -7.81397,-4.54077 -4.12505,-2.32654 -8.18462,-4.74746 -12.2283,-7.21472 -6.52189,-3.97821 -13.11215,-7.83517 -19.73344,-11.64161 -4.16659,-2.39528 -8.3048,-4.82748 -12.40616,-7.3348 -6.43838,-3.92818 -12.97302,-7.69602 -19.516372,-11.44231 -4.474753,-2.576 -8.903682,-5.22985 -13.333733,-7.8832 l -1.102825,-0.66051 c -2.405211,-1.44109 -4.808514,-2.88542 -7.211149,-4.33088 l -1.804503,-1.08287 C 55.082158,402.29649 41.534537,388.68014 36.096524,369.161 c -0.713622,-3.15616 -1.326162,-6.31864 -1.882405,-9.5074 l -0.332634,-1.81857 c -0.278611,-1.87519 -0.374817,-3.6231 -0.37731,-5.517 l -0.0073,-2.09455 0.0024,-2.28069 -0.0061,-2.43903 c -0.0049,-2.23008 -0.0061,-4.46015 -0.0061,-6.69026 -0.0012,-2.40718 -0.0061,-4.81435 -0.0098,-7.2215 -0.0086,-5.26354 -0.01234,-10.52706 -0.01503,-15.7906 -0.0024,-3.29082 -0.0049,-6.58162 -0.0073,-9.87244 -0.0073,-9.1221 -0.01417,-18.2442 -0.01625,-27.36631 l -4.28e-4,-1.76869 -4.03e-4,-1.77283 c -2.81e-4,-1.18541 -5.62e-4,-2.3708 -6.35e-4,-3.55619 l -4.15e-4,-1.78179 c -0.0024,-9.51076 -0.01345,-19.02151 -0.02811,-28.53224 -0.0149,-9.77888 -0.02273,-19.55777 -0.02334,-29.33667 -5.74e-4,-5.48455 -0.0049,-10.96906 -0.01552,-16.45359 -0.0098,-4.67419 -0.01283,-9.3483 -0.0073,-14.02248 0.0024,-2.38019 0.0024,-4.76027 -0.0073,-7.14045 -0.03434,-9.75591 0.123774,-19.20064 2.115253,-28.7774 l 0.472635,-2.32458 c 2.243488,-10.20892 8.219818,-20.49266 15.214115,-28.09908 l 1.198563,-1.57714 c 1.4368,-1.74433 2.968143,-3.07 4.723182,-4.48382 l 1.762309,-1.42858 1.727996,-1.38403 1.536794,-1.28497 c 1.797441,-1.40414 3.659402,-2.59323 5.600671,-3.78565 l 2.053982,-1.267647 c 1.733165,-1.04471 3.476669,-2.065542 5.231475,-3.072565 2.760391,-1.595279 5.499443,-3.228089 8.244413,-4.85025 4.95017,-2.923402 9.915082,-5.817367 14.902428,-8.675499 4.66199,-2.673595 9.25048,-5.448578 13.81199,-8.292967 2.96706,-1.844599 5.96735,-3.587668 9.04164,-5.245162 4.77943,-2.595328 9.49148,-5.313979 14.04945,-8.289269 2.73865,-1.786469 5.53543,-3.387734 8.4071,-4.944342 5.76761,-3.147291 11.39366,-6.530696 17.00542,-9.950578 3.66838,-2.234411 7.34098,-4.423511 11.12043,-6.462047 7.10089,-3.899252 14.10165,-7.992352 20.95896,-12.312576 8.28501,-5.162618 16.77138,-10.032378 25.28018,-14.808251 1.3351,-0.75028 2.66596,-1.508343 3.99031,-2.277823 4.24886,-2.4349385 8.58457,-4.2839158 13.20138,-5.8926045 l 2.05154,-0.715525 c 18.46064,-5.8833059 37.78045,-2.6821368 54.41374,6.9569205 z"
             fill="#242c34"
             id="path1"
             sodipodi:nodetypes="ccccccccccscccccccccccsssccsssccccccccccscccccccccccccccsccsccccccccccccscscsssccsccccccccccccccccccccccccccc"
             inkscape:label="bg"
             style="fill:#162d3b;stroke-width:0.630639" /><g
             id="g560"
             inkscape:label="ring"
             transform="matrix(0.62746985,0,0,0.63382628,-83.124126,-85.926266)"><path
                 d="M 0,0 C 2.3981952,1.3756411 4.8056744,2.7344467 7.2128906,4.0942383 21.830626,12.381147 21.830626,12.381147 27.025391,15.664551 c 4.554724,2.877511 9.234076,5.522491 13.921875,8.175781 6.469727,3.676853 12.915079,7.386294 19.3125,11.1875 7.096141,4.211362 14.289833,8.237575 21.5,12.25 7.366001,4.100621 14.632144,8.265648 21.765624,12.757813 5.8483,3.614723 11.90103,6.893843 17.89478,10.258789 6.20856,3.492602 12.35524,7.063764 18.44506,10.758789 5.10523,3.093904 10.28204,6.050432 15.47266,8.998047 5.57562,3.177798 11.09373,6.454145 16.62109,9.714843 3.48891,2.058017 6.98663,4.100457 10.48829,6.136717 3.4964,2.03522 6.97538,4.09452 10.4375,6.1875 3.6568,2.20324 7.34759,4.33377 11.0625,6.4375 8.43171,4.78416 16.76641,9.73579 25.09057,14.7041 7.21512,4.31177 7.21512,4.31177 14.52271,8.46387 24.32164,13.56833 42.1065,37.36634 50.13672,63.83203 l 0.61401,1.99707 c 3.72615,12.9024 3.98073,25.69969 3.92554,39.00415 -5.7e-4,1.92308 -2.5e-4,3.84615 8.8e-4,5.76923 5.7e-4,5.18299 -0.0111,10.36588 -0.0251,15.54885 -0.0126,5.43052 0.0802,10.86105 0.0778,16.29159 -0.006,10.26667 0.0338,20.57089 0.0137,30.83755 -0.0224,11.69535 0.023,23.39071 0.013,35.08609 -0.0209,24.24937 0.0943,48.01022 0.0497,72.05289 l -2.62742,1.27016 -2.98811,1.62533 -2.95793,1.60758 c -3.41999,1.88539 -6.76508,3.87241 -10.09602,5.90951 -6.16504,3.73605 -12.39184,7.34564 -18.66407,10.89844 -1.95311,1.11534 -3.88749,2.26447 -5.79687,3.45312 -2.22656,1.27344 -2.22656,1.27344 -4.22656,1.27344 l -0.01,-3.06875 c -0.0811,-24.68172 -0.17347,-49.36338 -0.27749,-74.04501 -0.05,-11.93603 -0.0965,-23.87204 -0.13435,-35.80811 -0.033,-10.40782 -0.0729,-20.81558 -0.12091,-31.22333 -0.0252,-5.50686 -0.047,-11.01369 -0.0606,-16.52059 -0.0129,-5.19233 -0.0351,-10.38455 -0.064,-15.57681 -0.009,-1.89693 -0.0147,-3.79387 -0.0168,-5.69081 -0.0343,-26.51532 -4.75167,-51.03853 -23.31578,-71.06659 l -2.26563,-2.54297 C 211.904,178.89812 194.11836,170.38754 178.00977,161.15283 l -2.21924,-1.27539 c -3.92059,-2.25273 -7.84882,-4.49177 -11.78076,-6.72461 -12.29213,-6.98318 -24.52277,-14.06772 -36.61329,-21.39551 -6.60756,-4.00062 -13.30134,-7.80377 -20.06884,-11.52685 -7.472202,-4.12752 -14.8346,-8.43626 -22.199954,-12.75073 -9.995991,-5.85215 -20.05093,-11.598032 -30.11792,-17.326908 -8.952744,-5.098584 -17.885987,-10.230649 -26.8125,-15.375 L 24.75293,72.793457 C 19.180141,69.577831 13.621798,66.342075 8.0964356,63.045654 -18.925851,46.954829 -43.83262,35.757406 -75.990234,42.152832 c -11.071992,2.819363 -20.991582,7.617164 -30.999996,13 l -2.10401,1.128906 c -9.98433,5.390763 -19.76365,11.117839 -29.51611,16.915039 -7.07295,4.200561 -14.1971,8.302528 -21.34839,12.36792 -6.6642,3.793508 -13.28976,7.65002 -19.90649,11.525635 -7.77314,4.551598 -15.58179,9.030068 -23.4375,13.437498 -9.09351,5.10587 -18.08094,10.37946 -27.03989,15.71655 -7.55203,4.49821 -15.13061,8.93981 -22.77261,13.28345 -6.16738,3.50582 -12.32268,7.02813 -18.4375,10.625 l -2.02417,1.19043 c -3.96373,2.34012 -7.90775,4.71099 -11.84302,7.09863 l -2.77515,1.67969 c -1.79363,1.08711 -3.5849,2.17813 -5.37353,3.27344 l -2.44898,1.48437 -2.17944,1.33057 c -1.79321,0.94287 -1.79321,0.94287 -3.79321,0.94287 14.6357,-63.32726 0.64477,-3.18994 15.10812,-65.78376 14.33024,-8.305918 14.37527,-8.259226 40.50516,-23.712332 3.40314,-2.144368 6.92958,-4.028404 10.47265,-5.929687 9.19184,-4.965566 18.1581,-10.303613 27.10157,-15.699219 5.84629,-3.52529 11.69932,-6.979063 17.72265,-10.195312 11.31669,-6.15193 22.47382,-12.609684 33.40235,-19.425782 13.20381,-8.145163 26.72857,-15.828286 40.28906,-23.363281 2.12775,-1.183716 4.24876,-2.37973096 6.35937,-3.59374997 6.7714,-3.84165413 13.68125,-6.75881313 21.039066,-9.29687503 l 3.269531,-1.128906 C -57.298518,-20.258277 -26.508497,-15.207739 0,0 Z"
                 fill="#5bd3d1"
                 id="path2"
                 transform="translate(596.99023,152.84717)"
                 sodipodi:nodetypes="ccccccccccscccccccccccccccccccccscscscccccccccccccccccccccccccccccccccccccccccc"
                 inkscape:label="blue-right" /><g
                 id="g559"
                 inkscape:label="blue-left"><path
                     d="M 0,0 0.00723743,3.2834578 C 0.06620381,29.728485 0.14219148,56.173422 0.23571491,82.61835 c 0.0448401,12.788911 0.0842816,25.57779 0.11072064,38.36676 0.0230759,11.15538 0.0565799,22.31067 0.10226601,33.46598 0.0238036,5.8989 0.0426162,11.79771 0.0489123,17.69665 0.00611,5.56913 0.0263177,11.13804 0.0566616,16.70709 0.008687,2.02782 0.0125226,4.05568 0.0107327,6.08352 C 0.54720253,224.45832 4.5951361,253.33461 26.144531,275.25 33.766317,282.59027 41.950893,288.55389 51,294 l 3.253906,1.97656 C 58.157039,298.33834 62.077351,300.67082 66,303 l 2.595703,1.54248 c 10.006178,5.94183 20.030842,11.83967 30.150391,17.58643 3.442566,1.97957 6.852896,4.00885 10.253906,6.05859 14.1487,8.52662 28.37141,16.91643 42.73706,25.07251 8.0475,4.58455 16.01051,9.30812 23.97018,14.04266 7.36558,4.38088 14.75247,8.70667 22.21073,12.9278 3.41114,1.95849 6.77974,3.98298 10.14453,6.01953 6.82465,4.12743 13.74139,8.08232 20.677,12.01978 5.60644,3.19079 11.17113,6.44312 16.71045,9.74902 3.65801,2.18001 7.32784,4.33933 11.00317,6.48999 1.62773,0.95304 3.25299,1.91032 4.875,2.87305 C 271.95624,423.64281 281.85452,426.91792 294,429 l 13.72821,2.2894 c -0.37256,15.17932 -0.13064,30.07653 0,45 -6.07972,0.62367 -16.45187,-0.43785 -26.28636,-3.11117 -9.95409,-2.70582 -19.36695,-7.04372 -24.82466,-9.74854 -8.21881,-4.23306 -16.10324,-9.07585 -24.01026,-13.85742 -3.29973,-1.9901 -3.76699,-2.26957 -13.36059,-7.9126 -5.86752,-3.44773 -11.75721,-6.85672 -17.64917,-10.26245 -6.72761,-3.89002 -13.44566,-7.79628 -20.15967,-11.70972 l -2.99048,-1.74121 c -4.57804,-2.66998 -9.14313,-5.35762 -13.6814,-8.09473 -4.10705,-2.47221 -8.26029,-4.84123 -12.45312,-7.16406 -6.57413,-3.67064 -13.04384,-7.49019 -19.48828,-11.38281 C 122.43029,385.0282 111.92736,378.943 101.375,372.9375 94.734701,369.15841 88.139621,365.32109 81.603271,361.36523 71.342406,355.16768 60.928138,349.22308 50.5,343.3125 43.368588,339.24827 36.310182,335.06125 29.25,330.875 l -1.757568,-1.04208 C 23.659249,327.55925 19.829107,325.28052 16,323 l -2.876953,-1.7085 C -13.742557,305.27853 -35.333438,283.79575 -44,253 c -1.137299,-4.97953 -2.11351,-9.96903 -3,-15 l -0.530814,-2.68365 c -0.561177,-3.96657 -0.604286,-7.86249 -0.589441,-11.85843 l -0.0026,-2.56467 c -0.0016,-2.8282 0.0038,-5.65635 0.0093,-8.48456 2.82e-4,-2.03041 1.23e-4,-4.06083 -4.43e-4,-6.09125 -0.05218,-5.50774 -0.06854,-11.01546 -0.06157,-16.5232 0.0042,-3.80106 -0.03603,-7.5947 -0.0131,-11.39577 0.01181,-1.95649 -0.0312,-3.94264 0.0063,-5.89172 0.0013,-4.53756 -0.0095,-9.08735 -0.0196,-13.62195 -0.01792,-8.04867 -0.03076,-10.92534 -0.0047,-19.059 0.0058,-6.48367 -0.0541,-12.96244 -0.01552,-19.44786 0.02079,-3.49452 0.02928,-7.01139 0.0038,-10.50765 -0.01767,-2.42207 -0.01466,-4.85725 -0.01368,-7.29103 0.0044,-10.65437 -0.07277,-21.307565 -0.0292,-31.960564 0.06083,-14.87239 -0.04783,-29.60977 -0.03485,-44.54465 l 2.515531,-1.281077 2.94838,-1.605469 2.906845,-1.582031 C -35.399861,19.121848 -30.917033,16.565459 -26.4375,14 l 2.630859,-1.5 C -18.564261,9.5021237 -13.3693,6.4376548 -8.2111816,3.296875 -2.5899849,0 -2.5899849,0 0,0 Z"
                     fill="#5bd1d1"
                     transform="translate(234,465)"
                     id="path3"
                     sodipodi:nodetypes="cscsccccccccccccccccccccccscccccccccsccscccccccccccscscsscscccccccc" /><path
                     d="m 0,0 c -1.3467392,7.1356785 -2.9738118,14.163224 -4.8125,21.1875 l -0.7897949,3.032959 c -1.8578869,7.019122 -2.0875133,17.507046 -4.5295701,24.343225 -0.9677,3.01876 -0.745739,5.582553 -0.745739,5.582553 l -3.075033,1.951908 c -2.974939,1.674169 -5.948655,3.3505 -8.922363,5.026855 l -3.070312,1.726562 c -5.585302,3.150684 -10.966241,6.548997 -16.545479,9.813828 -14.188517,8.573885 -28.616243,16.713061 -43.021416,24.915665 -12.393547,7.068825 -24.684403,14.306125 -36.947753,21.597835 -7.29324,4.33429 -14.61259,8.60753 -22.02686,12.73175 -10.19701,5.67952 -20.20418,11.69091 -30.20068,17.71436 -7.04077,4.23969 -14.15432,8.33727 -21.3125,12.375 l -2.79297,1.62109 C -209.0103,169.43154 -219.58694,173.63477 -231,176.375 l -2.10205,0.5083 c -4.3795,0.97992 -14.37138,1.66959 -18.84292,1.61262 -0.59671,-36.91163 0.68946,-9.09051 -0.29506,-44.30718 -0.10197,-3.64767 21.03345,-0.37473 43.74003,-13.25124 l 2.64355,-1.47729 c 6.80521,-3.82035 13.54477,-7.74917 20.25489,-11.73365 5.4749,-3.25095 10.97575,-6.4572 16.47656,-9.66406 l 3.11572,-1.817383 c 6.20351,-3.616343 12.41588,-7.216953 18.63428,-10.807617 9.56514,-5.526595 19.07255,-11.149554 28.57666,-16.780273 5.51097,-3.263692 11.0264,-6.519824 16.54102,-9.777344 4.622426,-2.730876 9.243726,-5.463628 13.862789,-8.200196 8.545364,-5.060216 17.099916,-10.100132 25.707031,-15.054687 8.450978,-4.868596 16.814385,-9.877767 25.169678,-14.908447 8.207372,-4.939593 16.44478,-9.826216 24.702636,-14.6809085 l 2.588623,-1.5239258 2.2631841,-1.3293456 C -2.678918,0 -2.678918,0 0,0 Z"
                     fill="#844ABE"
                     transform="translate(793,763)"
                     id="path4-0"
                     style="fill:#5ad3d1"
                     sodipodi:nodetypes="ccccccccccccccccccsccscccccccccccc" /></g><path
                 d="M 1.1529739,-0.45223924 C -5.0751327,24.777659 -13.31996,48.415707 -16.717529,61.83374 c -1.740869,6.609266 -1.740869,6.609266 -4.48169,9.427979 L -23.6875,72.6875 c -4.342945,2.670625 -7.993415,5.553927 -11.71875,9.027344 C -39.638941,83.79645 -41.393879,87.616091 -44.25,91.125 -51.520564,100.41684 -55.794329,109.67562 -59,121 l -0.544296,1.90439 c -1.675163,6.55704 -1.59004,12.77501 -1.412735,19.50577 0.02353,2.39515 0.04361,4.79034 0.06055,7.18554 0.03272,3.74346 0.08443,7.48185 0.19458,11.22388 0.55347,20.13496 0.55347,20.13496 -2.3974,24.98856 -3.322305,3.3197 -7.574825,4.63277 -11.900696,6.19186 -2.466414,1.29357 -4.834583,2.73757 -7.21875,4.17578 -1.208695,0.69338 -2.419643,1.38284 -3.632812,2.06836 l -1.817383,1.03052 L -89.5,200.3125 c -1.858789,1.05604 -3.717204,2.11274 -5.575317,3.16997 -1.663677,0.94623 -3.328328,1.89075 -4.993043,2.83516 -1.90148,1.0912 -3.78026,2.22336 -5.62891,3.40185 C -108,211 -108,211 -111,211 c -0.07,-11.27597 -0.12307,-22.5519 -0.15544,-33.82805 -0.0155,-5.23798 -0.0366,-10.4758 -0.0709,-15.7137 -0.033,-5.07047 -0.0506,-10.14081 -0.0583,-15.21138 -0.005,-1.91855 -0.0162,-3.83708 -0.0326,-5.75556 C -111.57389,109.17539 -104.95451,78.636506 -83,55 l 1.910156,-2.488281 c 2.289842,-2.75209 4.730344,-4.843602 7.527344,-7.074219 L -70.753906,43.183594 -68,41 -65.550781,38.972656 C -62.686203,36.757324 -59.718798,34.881264 -56.625,33 l 3.273438,-2 c 2.759338,-1.646598 5.534899,-3.256012 8.328613,-4.843262 C -40.57989,23.616162 -36.168956,21.019686 -31.75,18.4375 -21.181208,12.266406 -9.4436971,5.6708373 1.1529739,-0.45223924 Z"
                 fill="#8446c1"
                 transform="translate(297,262)"
                 id="path6"
                 sodipodi:nodetypes="cccccccccccccccccccccccccccccccccccc"
                 inkscape:label="violet-left" /><path
                 d="M 0.34877789,-0.45341126 C 0.41922811,13.482055 0.57637398,27.76627 0.32982547,41.771633 c 0.0155931,6.472274 -0.007107,12.977408 0.0708818,19.451512 0.0749267,6.219925 0.0854601,12.548773 -0.11607555,18.77098 0.11013637,2.62011 0.0860032,4.751924 0.0325584,7.127838 C 0.50464702,115.58415 -4.6581016,142.91155 -24,165 l -2.390625,2.82422 C -36.844165,179.90478 -49.007598,188.45788 -63,196 c -3.826813,2.14962 -7.621096,4.35033 -11.375,6.625 -1.874488,1.12585 -3.749583,2.25069 -5.625,3.375 l -2.079102,1.24805 c -2.3042,1.38034 -4.612212,2.75413 -6.920898,4.12695 l -2.286621,1.37354 -2.150879,1.2749 -1.933594,1.15381 c -1.766512,0.85715 -1.302092,0.63354 -3.680508,1.68279 1.001368,-5.786 2.502454,-11.76356 3.989102,-17.23504 1.749822,-6.20751 3.732841,-12.26781 5.0625,-18.625 4.908748,-21.98209 4.908748,-21.98209 12.230469,-27.46875 C -73.608109,149.9302 -70.393103,145.30734 -67,141 l 1.628906,-1.92969 C -51.067134,121.5314 -47.55621,99.546216 -47.644531,77.5625 l -0.0063,-2.159773 c -0.02787,-6.647575 -0.115147,-13.293726 -0.256181,-19.939836 -0.07555,-3.683933 -0.102233,-7.36566 -0.09928,-11.050324 -0.0087,-1.384427 -0.03612,-2.76888 -0.08341,-4.152527 -0.361679,-10.68444 -0.361679,-10.68444 3.2653,-14.621841 C -42.286801,23.842143 -39.775756,22.391638 -37,21 c 1.14192,-0.72677 2.276345,-1.465633 3.398438,-2.222656 C -27.42456,14.959275 -21.20593,11.464107 -14.65625,8.3242188 -10.826049,6.4147507 -7.2987222,4.201063 -3.75,1.8125 -1,0 -0.65122211,-0.45341126 0.34877789,-0.45341126 Z"
                 fill="#874ac4"
                 transform="translate(895,592)"
                 id="path7"
                 sodipodi:nodetypes="ccsccccccccccccccccccccccccccccc"
                 inkscape:label="violet-right" /></g><g
             id="g558"
             inkscape:label="shell icon"
             transform="matrix(0.62746985,0,0,0.63382628,-83.124126,-85.926266)"><path
                 d="M 0,0 C 108.07046,109.49691 2.8780379,3.0367708 111.4004,112.49131 4.698577,226.55636 111.20927,112.84757 2,229 -25.299211,201.48078 -1.9144152,224.86164 -25.376871,201.23918 3.0082969,173.09926 30.743505,144.27932 59,116 -4.626588,49.728504 21.229823,76.704483 -25,29 -2.1838335,2.7303982 -22.914254,26.625332 0,0 Z"
                 fill="#fbfcf7"
                 id="path5-2"
                 transform="translate(420,418)"
                 sodipodi:nodetypes="ccccccc"
                 inkscape:label="&gt;" /><path
                 d="M 0,0 H 155 V 37 H 0 Z"
                 fill="#fcfdf8"
                 transform="translate(533,609)"
                 id="path8"
                 sodipodi:nodetypes="ccccc"
                 inkscape:label="_" /></g></g></svg>
